Coordinates
version=1
nRows=10
nColumns=22
inDegrees=yes

Units are S.I. units (second, meters, Newtons, ...)
If the header above contains a line with 'inDegrees', this indicates whether rotational values are in degrees (yes) or radians (no).

endheader
time	pelvis_tilt	pelvis_list	pelvis_rotation	pelvis_tx	pelvis_ty	pelvis_tz	hip_flexion_r	hip_adduction_r	hip_rotation_r	knee_angle_r	ankle_angle_r	subtalar_angle_r	hip_flexion_l	hip_adduction_l	hip_rotation_l	knee_angle_l	ankle_angle_l	subtalar_angle_l	lumbar_extension	lumbar_bending	lumbar_rotation
      4.27000000	      1.17883525	      1.31550994	      8.35363676	      0.61792149	      0.97588617	     -0.00977309	     27.35503090	     -7.36356104	    -11.62821084	    -18.78947301	      0.19100228	     11.52640796	    -14.75519798	     -0.45257465	     -0.21524718	    -22.22223698	     13.75017602	      6.84777535	     -4.20173533	     -2.62607882	     -7.26320353
      4.28000000	      1.06172594	      1.00479362	      8.22467265	      0.62998852	      0.97673470	     -0.00767652	     27.52215843	     -6.89753268	    -11.42499133	    -19.91493338	     -0.48266682	     11.23826639	    -14.59335323	     -0.97327823	     -0.45472534	    -23.29808988	     12.28578760	      7.43229241	     -3.79816003	     -2.28685884	     -6.95902789
      4.29000000	      0.91210037	      0.67058136	      8.03464547	      0.64202026	      0.97774360	     -0.00537856	     27.64688143	     -6.32745586	    -11.05047598	    -20.88513269	     -1.04479597	     10.93253508	    -14.28185624	     -1.51090173	     -0.87893406	    -24.53215336	     10.67463507	      7.96976272	     -3.35027796	     -1.94226720	     -6.63266056
      4.30000000	      0.76907611	      0.31577515	      7.78314976	      0.65392929	      0.97893017	     -0.00289883	     27.68513626	     -5.65854868	    -10.52220525	    -21.68939199	     -1.54043759	     10.68753349	    -13.85148923	     -2.08199692	     -1.53845191	    -25.93642076	      8.94844066	      8.29796920	     -2.91525581	     -1.57949057	     -6.31376235
      4.31000000	      0.60773513	     -0.04535916	      7.51545318	      0.66566313	      0.98022035	     -0.00032529	     27.66110250	     -4.94710940	     -9.96783923	    -22.34222115	     -1.92595486	     10.29930230	    -13.26379560	     -2.68462392	     -2.35092580	    -27.53030853	      7.14972557	      8.53109604	     -2.46982286	     -1.21853536	     -6.01727577
      4.32000000	      0.45145473	     -0.40716873	      7.26063245	      0.67716788	      0.98161584	      0.00225721	     27.55030406	     -4.22588241	     -9.45018963	    -22.85321149	     -2.21811490	      9.77808208	    -12.54506206	     -3.32604932	     -3.25751413	    -29.30624594	      5.32226659	      8.61052715	     -2.05037297	     -0.85805697	     -5.76695506
      4.33000000	      0.29854218	     -0.76157508	      7.05212248	      0.68839455	      0.98307258	      0.00478295	     27.36196022	     -3.53126805	     -9.04135485	    -23.24219624	     -2.41396810	      9.04818297	    -11.68879068	     -4.00777447	     -4.19585459	    -31.26900172	      3.55152401	      8.49024129	     -1.66446248	     -0.50685948	     -5.58025968
      4.34000000	      0.16646720	     -1.11419472	      6.90020471	      0.69932216	      0.98460221	      0.00721920	     27.07792905	     -2.86066686	     -8.71327259	    -23.50527222	     -2.53292819	      8.26884408	    -10.72938471	     -4.73337480	     -5.09786574	    -33.38375662	      1.90801045	      8.20171471	     -1.33545950	     -0.15618943	     -5.47146398
      4.35000000	      0.05363436	     -1.47008814	      6.81393303	      0.70992831	      0.98617057	      0.00953133	     26.72050475	     -2.22011550	     -8.49470408	    -23.67400486	     -2.57352953	      7.45724151	     -9.67068422	     -5.50137114	     -5.91778649	    -35.63303004	      0.48444136	      7.75451392	     -1.06402862	      0.19991689	     -5.42959567
      4.36000000	     -0.03805121	     -1.83159005	      6.79698384	      0.72020995	      0.98776752	      0.01169760	     26.29067109	     -1.60763295	     -8.37964296	    -23.74593769	     -2.54777022	      6.64035259	     -8.52591293	     -6.30177421	     -6.61205874	    -37.98457629	     -0.64824179	      7.14968806	     -0.85395361	      0.56260043	     -5.44385164
